<?xml version="1.0" standalone="no"?>
<svg viewBox="0 0 200 200" xmlns="http://www.w3.org/2000/svg">
  <path fill="#284b63" d="M42.2,-62.1C56.9,-56.2,72.5,-48.2,77.8,-35.8C83.1,-23.3,78.1,-6.4,75.3,10.6C72.5,27.6,71.9,44.7,62.1,51.2C52.4,57.8,33.5,53.9,17.9,56.3C2.4,58.6,-10,67.2,-20.4,65.9C-30.9,64.5,-39.5,53.1,-48.8,42.3C-58.1,31.5,-68,21.4,-68.1,10.7C-68.1,0.1,-58.2,-11,-53,-25C-47.8,-39,-47.4,-56,-39.3,-64.9C-31.3,-73.9,-15.6,-74.8,-0.9,-73.3C13.8,-71.9,27.5,-68.1,42.2,-62.1Z" transform="translate(100 100)" />
</svg>
